<?xml version="1.0" encoding="UTF-8"?>
<svg width="345px" height="60px" viewBox="0 0 345 60" version="1.1" xmlns="http://www.w3.org/2000/svg" xmlns:xlink="http://www.w3.org/1999/xlink">
    <title>Group</title>
    <g id="Page-1" stroke="none" stroke-width="1" fill="none" fill-rule="evenodd">
        <g id="Group" transform="translate(0.801704, 0.360319)" fill-rule="nonzero">
            <path d="M88.2513959,12.8420813 C88.8146959,13.8727813 89.4643959,15.1450813 90.2003959,16.6590813 C90.9363959,18.1730813 91.7029959,19.8124813 92.5003959,21.5770813 C93.3003959,23.3410813 94.0906959,25.1440813 94.8713959,26.9860813 C95.6519959,28.8280813 96.3876959,30.5614813 97.0783959,32.1860813 C97.7669959,30.5627813 98.5026959,28.8294813 99.2852959,26.9860813 C100.068296,25.1427813 100.858296,23.3397813 101.656296,21.5770813 C102.456296,19.8130813 103.223296,18.1737813 103.956296,16.6590813 C104.689296,15.1444813 105.339296,13.8720813 105.905296,12.8420813 L112.556296,12.8420813 C112.868296,14.9967813 113.157296,17.4087813 113.422296,20.0780813 C113.687296,22.7474813 113.921296,25.5264813 114.122296,28.4150813 C114.322296,31.3030813 114.509296,34.1990813 114.684296,37.1030813 C114.859296,40.0070813 115.007296,42.7404813 115.129296,45.3030813 L108.010296,45.3030813 C107.916296,42.1497813 107.791296,38.7164813 107.635296,35.0030813 C107.479296,31.2897813 107.246296,27.5430813 106.935296,23.7630813 C106.371296,25.0744813 105.745296,26.5264813 105.056296,28.1190813 C104.367296,29.7117813 103.686296,31.3040813 103.012296,32.8960813 C102.339296,34.4887813 101.689296,36.0107813 101.062296,37.4620813 C100.435296,38.9134813 99.9022959,40.1544813 99.4622959,41.1850813 L94.3623959,41.1850813 C93.9236959,40.1544813 93.3903959,38.9134813 92.7623959,37.4620813 C92.1343959,36.0107813 91.4843959,34.4887813 90.8123959,32.8960813 C90.1389959,31.3034813 89.4576959,29.7110813 88.7683959,28.1190813 C88.0789959,26.5270813 87.4526959,25.0750813 86.8893959,23.7630813 C86.5773959,27.5410813 86.3439959,31.2877813 86.1893959,35.0030813 C86.0346959,38.7184813 85.9096959,42.1517813 85.8143959,45.3030813 L78.6953959,45.3030813 C78.8199959,42.7430813 78.9683959,40.0097813 79.1403959,37.1030813 C79.3123959,34.1964813 79.4996959,31.3004813 79.7023959,28.4150813 C79.9023959,25.5270813 80.1356959,22.7480813 80.4023959,20.0780813 C80.6689959,17.4080813 80.9576959,14.9960813 81.2683959,12.8420813 L88.2513959,12.8420813 Z M130.590296,40.4280813 C131.277296,40.4280813 131.932296,40.4124813 132.557296,40.3810813 C133.059296,40.3616813 133.560296,40.3145813 134.057296,40.2400813 L134.057296,34.9480813 C133.776296,34.8854813 133.354296,34.8230813 132.792296,34.7610813 C132.279296,34.7014813 131.763296,34.6700813 131.246296,34.6670813 C130.627296,34.6646813 130.009296,34.7037813 129.396296,34.7840813 C128.868296,34.8476813 128.353296,34.9979813 127.874296,35.2290813 C127.458296,35.4294813 127.103296,35.7365813 126.844296,36.1190813 C126.581296,36.5394813 126.451296,37.0287813 126.469296,37.5240813 C126.423296,37.9674813 126.501296,38.4150813 126.696296,38.8162813 C126.890296,39.2175813 127.192296,39.5565813 127.569296,39.7950813 C128.505296,40.2621813 129.545296,40.4801813 130.589296,40.4280813 L130.590296,40.4280813 Z M130.028296,20.0080813 C131.772296,19.9618813 133.512296,20.1982813 135.180296,20.7080813 C136.428296,21.0995813 137.561296,21.7910813 138.480296,22.7220813 C139.322296,23.6210813 139.926296,24.7157813 140.237296,25.9070813 C140.595296,27.2670813 140.768296,28.6689813 140.752296,30.0750813 L140.752296,44.5940813 C139.752296,44.8127813 138.363296,45.0704813 136.584296,45.3670813 C134.445296,45.6896813 132.284296,45.8384813 130.121296,45.8120813 C128.666296,45.8256813 127.214296,45.6841813 125.789296,45.3900813 C124.593296,45.1509813 123.454296,44.6812813 122.437296,44.0070813 C121.510296,43.3774813 120.766296,42.5126813 120.283296,41.5010813 C119.751296,40.3089813 119.496296,39.0118813 119.537296,37.7070813 C119.497296,36.4342813 119.796296,35.1735813 120.403296,34.0540813 C120.961296,33.0745813 121.759296,32.2526813 122.721296,31.6650813 C123.748296,31.0488813 124.872296,30.6132813 126.046296,30.3770813 C127.324296,30.1080813 128.627296,29.9739813 129.933296,29.9770813 C130.739296,29.9720813 131.544296,30.0110813 132.345296,30.0940813 C132.922296,30.1478813 133.493296,30.2481813 134.054296,30.3940813 L134.054296,29.7380813 C134.078296,29.2136813 133.995296,28.6898813 133.810296,28.1986813 C133.625296,27.7074813 133.341296,27.2590813 132.977296,26.8810813 C131.914296,26.0512813 130.571296,25.6652813 129.230296,25.8040813 C128.054296,25.8033813 126.880296,25.8896813 125.717296,26.0620813 C124.695296,26.2007813 123.690296,26.4440813 122.717296,26.7880813 L121.827296,21.1680813 C122.233296,21.0434813 122.740296,20.9100813 123.349296,20.7680813 C123.958296,20.6260813 124.621296,20.5010813 125.339296,20.3930813 C126.057296,20.2837813 126.814296,20.1900813 127.610296,20.1120813 C128.406296,20.0340813 129.212296,19.9990813 130.027296,20.0070813 L130.028296,20.0080813 Z M147.076296,21.5080813 C148.585296,21.0960813 150.118296,20.7754813 151.666296,20.5480813 C153.618296,20.2454813 155.591296,20.0966813 157.566296,20.1030813 C159.342296,20.0512813 161.113296,20.3292813 162.788296,20.9230813 C164.071296,21.3949813 165.209296,22.1940813 166.088296,23.2410813 C166.922296,24.2846813 167.514296,25.5002813 167.821296,26.8000813 C168.179296,28.3033813 168.352296,29.8447813 168.336296,31.3900813 L168.336296,45.3000813 L161.358296,45.3000813 L161.358296,32.2320813 C161.485296,30.5892813 161.178296,28.9419813 160.468296,27.4550813 C159.875296,26.5184813 158.766296,26.0500813 157.143296,26.0500813 C156.644296,26.0500813 156.113296,26.0734813 155.551296,26.1200813 C154.989296,26.1667813 154.489296,26.2214813 154.051296,26.2840813 L154.051296,45.2990813 L147.073296,45.2990813 L147.076296,21.5080813 Z M180.610296,32.1860813 C180.610296,36.0887813 182.187296,38.0400813 185.340296,38.0400813 C186.022296,38.0452813 186.700296,37.9506813 187.354296,37.7590813 C187.908296,37.6010813 188.442296,37.3809813 188.946296,37.1030813 L188.946296,25.9560813 C188.603296,25.8934813 188.197296,25.8387813 187.728296,25.7920813 C187.259296,25.7454813 186.713296,25.7220813 186.089296,25.7220813 C185.305296,25.6659813 184.519296,25.8031813 183.801296,26.1217813 C183.082296,26.4402813 182.453296,26.9304813 181.968296,27.5490813 C181.020296,28.9042813 180.543296,30.5327813 180.609296,32.1850813 L180.610296,32.1860813 Z M195.924296,42.2070813 C195.924296,46.2350813 194.901296,49.2247813 192.856296,51.1760813 C190.811296,53.1274813 187.649296,54.1030813 183.372296,54.1030813 C181.863296,54.1019813 180.357296,53.9680813 178.872296,53.7030813 C177.458296,53.4590813 176.064296,53.1066813 174.704296,52.6490813 L175.922296,46.7950813 C177.037296,47.2387813 178.189296,47.5833813 179.364296,47.8250813 C180.714296,48.0890813 182.088296,48.2146813 183.464296,48.2000813 C185.464296,48.2000813 186.877296,47.7630813 187.703296,46.8890813 C188.546296,45.9733813 188.993296,44.7609813 188.944296,43.5170813 L188.944296,42.6270813 C188.202296,42.9682813 187.425296,43.2274813 186.626296,43.4000813 C185.771296,43.5779813 184.899296,43.6644813 184.026296,43.6580813 C180.626296,43.6580813 178.019296,42.6510813 176.205296,40.6370813 C174.391296,38.6230813 173.486296,35.8050813 173.489296,32.1830813 C173.469296,30.4988813 173.756296,28.8251813 174.337296,27.2440813 C174.869296,25.8078813 175.708296,24.5051813 176.796296,23.4270813 C177.924296,22.3335813 179.274296,21.4949813 180.754296,20.9680813 C182.453296,20.3675813 184.245296,20.0742813 186.046296,20.1020813 C186.889296,20.1020813 187.756296,20.1410813 188.646296,20.2190813 C189.536296,20.2970813 190.418296,20.3970813 191.292296,20.5190813 C192.166296,20.6437813 193.001296,20.7920813 193.798296,20.9640813 C194.595296,21.1360813 195.305296,21.3157813 195.929296,21.5030813 L195.924296,42.2070813 Z M225.524296,32.9340813 C225.545296,34.7409813 225.260296,36.5383813 224.681296,38.2500813 C224.166296,39.7787813 223.337296,41.1825813 222.246296,42.3710813 C221.177296,43.5156813 219.876296,44.4178813 218.429296,45.0170813 C216.846296,45.6608813 215.150296,45.9794813 213.441296,45.9540813 C211.748296,45.9766813 210.067296,45.6579813 208.500296,45.0170813 C207.053296,44.4178813 205.752296,43.5156813 204.683296,42.3710813 C203.589296,41.1771813 202.745296,39.7758813 202.201296,38.2500813 C201.591296,36.5449813 201.290296,34.7448813 201.311296,32.9340813 C201.288296,31.1290813 201.598296,29.3351813 202.224296,27.6420813 C202.784296,26.1274813 203.644296,24.7413813 204.753296,23.5670813 C205.838296,22.4372813 207.146296,21.5442813 208.593296,20.9440813 C210.128296,20.3095813 211.776296,19.9908813 213.437296,20.0070813 C215.117296,19.9869813 216.783296,20.3060813 218.337296,20.9450813 C219.779296,21.5416813 221.080296,22.4353813 222.154296,23.5680813 C223.248296,24.7445813 224.093296,26.1303813 224.637296,27.6420813 C225.247296,29.3388813 225.547296,31.1312813 225.523296,32.9340813 L225.524296,32.9340813 Z M218.405296,32.9340813 C218.504296,31.1483813 218.054296,29.3751813 217.117296,27.8520813 C216.713296,27.2553813 216.162296,26.7724813 215.518296,26.4493813 C214.874296,26.1263813 214.157296,25.9740813 213.437296,26.0070813 C212.714296,25.9767813 211.995296,26.1306813 211.348296,26.4542813 C210.701296,26.7778813 210.147296,27.2605813 209.737296,27.8570813 C208.784296,29.3745813 208.326296,31.1502813 208.426296,32.9390813 C208.332296,34.7405813 208.790296,36.5278813 209.737296,38.0630813 C210.138296,38.6711813 210.690296,39.1653813 211.338296,39.4982813 C211.986296,39.8310813 212.709296,39.9911813 213.437296,39.9630813 C214.162296,39.9928813 214.883296,39.8332813 215.527296,39.5001813 C216.172296,39.1669813 216.719296,38.6717813 217.114296,38.0630813 C218.048296,36.5211813 218.497296,34.7343813 218.404296,32.9340813 L218.405296,32.9340813 Z M252.454296,12.8420813 L252.454296,15.6070813 L242.054296,15.6070813 L242.054296,45.3000813 L238.869296,45.3000813 L238.869296,15.6070813 L228.469296,15.6070813 L228.469296,12.8440813 L252.454296,12.8420813 Z M264.210296,20.6170813 C265.159296,20.6128813 266.107296,20.6911813 267.043296,20.8510813 C267.675296,20.9386813 268.295296,21.0956813 268.893296,21.3190813 L268.284296,23.9420813 C267.794296,23.7500813 267.283296,23.6158813 266.762296,23.5420813 C265.763296,23.3839813 264.752296,23.3133813 263.741296,23.3310813 C262.680296,23.3072813 261.620296,23.4014813 260.580296,23.6120813 C260.044296,23.7184813 259.518296,23.8751813 259.011296,24.0800813 L259.011296,45.2960813 L255.967296,45.2960813 L255.967296,22.2070813 C257.016296,21.7745813 258.097296,21.4222813 259.199296,21.1530813 C260.840296,20.7648813 262.523296,20.5847813 264.209296,20.6170813 L264.210296,20.6170813 Z M281.116296,43.0970813 C282.303296,43.0970813 283.341296,43.0580813 284.231296,42.9800813 C284.993296,42.9208813 285.751296,42.8207813 286.502296,42.6800813 L286.502296,34.1560813 C285.972296,33.9422813 285.423296,33.7775813 284.863296,33.6640813 C283.845296,33.4678813 282.809296,33.3813813 281.772296,33.4060813 C280.989296,33.4084813 280.206296,33.4632813 279.430296,33.5700813 C278.646296,33.6700813 277.885296,33.9070813 277.182296,34.2700813 C276.509296,34.6174813 275.930296,35.1236813 275.496296,35.7450813 C275.026296,36.4845813 274.795296,37.3515813 274.837296,38.2270813 C274.814296,39.0155813 274.966296,39.7994813 275.282296,40.5220813 C275.561296,41.1266813 275.998296,41.6447813 276.547296,42.0220813 C277.144296,42.4184813 277.812296,42.6967813 278.514296,42.8420813 C279.369296,43.0222813 280.242296,43.1077813 281.116296,43.0970813 L281.116296,43.0970813 Z M280.837296,20.5230813 C282.219296,20.4863813 283.594296,20.7168813 284.888296,21.2020813 C285.922296,21.6027813 286.846296,22.2449813 287.581296,23.0750813 C288.283296,23.8979813 288.795296,24.8651813 289.081296,25.9080813 C289.402296,27.0668813 289.560296,28.2647813 289.549296,29.4670813 L289.549296,44.7370813 C289.102296,44.8600813 288.649296,44.9601813 288.191296,45.0370813 C287.598296,45.1464813 286.911296,45.2634813 286.130296,45.3880813 C285.349296,45.5127813 284.483296,45.6127813 283.530296,45.6880813 C282.578296,45.7660813 281.602296,45.8050813 280.603296,45.8050813 C279.411296,45.8156813 278.223296,45.6738813 277.067296,45.3830813 C276.050296,45.1309813 275.095296,44.6769813 274.257296,44.0480813 C273.453296,43.4295813 272.811296,42.6261813 272.384296,41.7060813 C271.902296,40.6078813 271.670296,39.4160813 271.705296,38.2170813 C271.672296,37.0484813 271.930296,35.8899813 272.454296,34.8450813 C272.953296,33.9091813 273.678296,33.1124813 274.562296,32.5270813 C275.547296,31.8849813 276.643296,31.4321813 277.794296,31.1920813 C279.133296,30.9014813 280.499296,30.7598813 281.869296,30.7700813 C282.306296,30.7700813 282.767296,30.7934813 283.251296,30.8400813 C283.735296,30.8867813 284.203296,30.9490813 284.656296,31.0270813 C285.109296,31.1050813 285.499296,31.1830813 285.827296,31.2610813 C286.060296,31.3086813 286.287296,31.3793813 286.506296,31.4720813 L286.506296,29.9720813 C286.508296,29.1487813 286.445296,28.3266813 286.319296,27.5130813 C286.204296,26.7443813 285.925296,26.0094813 285.499296,25.3590813 C285.052296,24.6962813 284.438296,24.1630813 283.719296,23.8130813 C282.771296,23.3852813 281.737296,23.1848813 280.698296,23.2280813 C279.360296,23.1819813 278.023296,23.3079813 276.717296,23.6030813 C275.843296,23.8530813 275.203296,24.0560813 274.797296,24.2120813 L274.375296,21.5420813 C275.166296,21.2163813 275.991296,20.9815813 276.834296,20.8420813 C278.155296,20.6082813 279.496296,20.5014813 280.837296,20.5230813 L280.837296,20.5230813 Z M316.570296,44.5490813 C315.435296,44.9210813 314.278296,45.2183813 313.104296,45.4390813 C311.342296,45.7501813 309.554296,45.8915813 307.765296,45.8610813 C306.109296,45.8836813 304.464296,45.5896813 302.918296,44.9950813 C301.502296,44.4414813 300.223296,43.5863813 299.171296,42.4890813 C298.094296,41.3440813 297.265296,39.9882813 296.737296,38.5070813 C296.137296,36.8084813 295.843296,35.0165813 295.871296,33.2150813 C295.853296,31.4940813 296.098296,29.7803813 296.597296,28.1330813 C297.037296,26.6723813 297.761296,25.3130813 298.728296,24.1330813 C299.662296,23.0094813 300.838296,22.1117813 302.168296,21.5070813 C303.635296,20.8600813 305.225296,20.5403813 306.828296,20.5700813 C308.240296,20.5394813 309.645296,20.7696813 310.973296,21.2490813 C311.877296,21.5638813 312.735296,21.9969813 313.525296,22.5370813 L313.525296,9.51711131 L316.569296,8.95511131 L316.570296,44.5490813 Z M313.526296,25.4880813 C313.190296,25.2332813 312.837296,24.9994813 312.472296,24.7880813 C312.000296,24.5150813 311.507296,24.2809813 310.997296,24.0880813 C310.403296,23.8600813 309.792296,23.6797813 309.170296,23.5490813 C308.492296,23.4062813 307.802296,23.3354813 307.109296,23.3380813 C305.806296,23.2963813 304.513296,23.5708813 303.339296,24.1380813 C302.359296,24.6389813 301.515296,25.3702813 300.880296,26.2690813 C300.230296,27.2180813 299.769296,28.2834813 299.522296,29.4070813 C299.235296,30.6589813 299.094296,31.9397813 299.100296,33.2240813 C299.100296,36.4087813 299.896296,38.8520813 301.489296,40.5540813 C302.300296,41.4054813 303.284296,42.0736813 304.375296,42.5137813 C305.465296,42.9539813 306.637296,43.1558813 307.812296,43.1060813 C309.026296,43.1237813 310.239296,43.0532813 311.442296,42.8950813 C312.147296,42.8019813 312.844296,42.6531813 313.526296,42.4500813 L313.526296,25.4880813 Z M323.174296,33.1690813 C323.134296,31.2786813 323.444296,29.3971813 324.087296,27.6190813 C324.624296,26.1598813 325.435296,24.8164813 326.476296,23.6610813 C327.411296,22.6331813 328.563296,21.8254813 329.848296,21.2960813 C331.089296,20.7854813 332.417296,20.5228813 333.759296,20.5230813 C335.082296,20.4625813 336.402296,20.6906813 337.628296,21.1914813 C338.854296,21.6921813 339.957296,22.4536813 340.859296,23.4230813 C342.623296,25.3564813 343.505296,28.3380813 343.505296,32.3680813 C343.505296,32.6180813 343.497296,32.8677813 343.482296,33.1170813 C343.467296,33.3664813 343.443296,33.5997813 343.412296,33.8170813 L326.412296,33.8170813 C326.336296,36.2817813 327.113296,38.6970813 328.612296,40.6550813 C329.986296,42.2477813 332.172296,43.0440813 335.169296,43.0440813 C336.496296,43.0861813 337.823296,42.9283813 339.103296,42.5760813 C339.823296,42.3580813 340.528296,42.0907813 341.211296,41.7760813 L341.767296,44.4070813 C340.980296,44.7878813 340.156296,45.0861813 339.308296,45.2970813 C337.926296,45.6632813 336.499296,45.8365813 335.069296,45.8120813 C333.215296,45.8605813 331.369296,45.5427813 329.637296,44.8770813 C328.214296,44.3066813 326.946296,43.4078813 325.937296,42.2540813 C324.949296,41.0920813 324.229296,39.7262813 323.829296,38.2540813 C323.377296,36.5973813 323.157296,34.8861813 323.174296,33.1690813 L323.174296,33.1690813 Z M340.362296,31.2490813 C340.432296,29.1404813 339.807296,27.0672813 338.582296,25.3490813 C338.008296,24.6466813 337.276296,24.0896813 336.446296,23.7233813 C335.616296,23.3570813 334.711296,23.1918813 333.805296,23.2410813 C332.791296,23.2232813 331.787296,23.4482813 330.878296,23.8970813 C330.022296,24.3318813 329.259296,24.9281813 328.630296,25.6530813 C327.979296,26.4051813 327.470296,27.2700813 327.130296,28.2050813 C326.769296,29.1826813 326.556296,30.2086813 326.498296,31.2490813 L340.362296,31.2490813 Z" id="Shape" fill="#3B4254"></path>
            <path d="M29.3550959,58.7191379 C25.6012959,58.7255813 21.8814959,58.0084813 18.3990959,56.6070813 L29.6610959,45.3450813 L40.7440959,56.4290813 C37.1395959,57.9480813 33.2665959,58.7267813 29.3550959,58.7191379 L29.3550959,58.7191379 Z M15.9780959,55.5010813 C13.2482959,54.1009813 10.7544959,52.2823813 8.58711593,50.1110813 C6.41708593,47.9406813 4.60039593,45.4436813 3.20311593,42.7110813 L15.1170959,30.7970813 L27.8980959,43.5860813 L15.9780959,55.5060813 L15.9780959,55.5010813 Z M43.1350959,55.2910813 L31.4250959,43.5810813 L44.2070959,30.7990813 L55.7130959,42.3060813 C54.3563959,45.0596813 52.5763959,47.5835813 50.4380959,49.7860813 C48.3047959,51.9890813 45.8399959,53.8447813 43.1330959,55.2860813 L43.1350959,55.2910813 Z M29.6620959,41.8180813 L16.8800959,29.0370813 L29.6620959,16.2550813 L42.4380959,29.0370813 L29.6570959,41.8180813 L29.6620959,41.8180813 Z M2.10011593,40.2910813 C0.705965927,36.8159813 -0.00698807341,33.1052813 5.35752656e-05,29.3610813 C-0.00744207341,25.4491813 0.771665927,21.5757813 2.29110593,17.9710813 L13.3570959,29.0370813 L2.10310593,40.2910813 L2.10011593,40.2910813 Z M56.7850959,39.8520813 L45.9710959,29.0380813 L58.7161291,16.2930813 L58.7161291,29.3610813 C58.7214959,32.9467813 58.0671959,36.5029813 56.7860959,39.8520813 L56.7850959,39.8520813 Z M44.2070959,27.2740813 L31.4250959,14.4920813 L44.2070959,1.71006131 L56.9880959,14.4920813 L44.2060959,27.2740813 L44.2070959,27.2740813 Z M15.1180959,27.2740813 L3.42511593,15.5860813 C4.86624593,12.8787813 6.72201593,10.4136813 8.92511593,8.28006131 C11.1285959,6.14221131 13.6535959,4.36294131 16.4080959,3.00705131 L27.8970959,14.4960813 L15.1160959,27.2770813 L15.1180959,27.2740813 Z M29.6620959,12.7300813 L18.8620959,1.93006131 C22.2111959,0.648901307 25.7673959,-0.00530969264 29.3530959,3.24542897e-05 L42.3880959,3.24542897e-05 L29.6610959,12.7270813 L29.6620959,12.7300813 Z M58.7150959,12.6930813 L46.0250959,0.00305630736 L58.7160959,0.00305630736 L58.7160959,12.6930813 L58.7150959,12.6930813 Z" id="Shape" fill="#FFB300"></path>
        </g>
    </g>
</svg>